<?xml version="1.0" encoding="UTF-8"?>
<svg version="1.1" xmlns="http://www.w3.org/2000/svg" width="1024" height="1024">
<path d="M0 0 C7.55846217 -0.07313528 15.05198091 0.37740458 22.58862305 0.91943359 C24.49973877 1.0558728 24.49973877 1.0558728 26.44946289 1.19506836 C40.17578724 2.20284803 53.27075629 3.22564156 66.52612305 7.04443359 C67.4569873 7.30409912 68.38785156 7.56376465 69.34692383 7.83129883 C103.20688458 17.2802512 135.51149019 30.34549896 163.52612305 52.04443359 C164.31631836 52.65416016 165.10651367 53.26388672 165.9206543 53.89208984 C168.48493503 55.90954496 171.01009927 57.96708255 173.52612305 60.04443359 C174.04013672 60.4667627 174.55415039 60.8890918 175.08374023 61.32421875 C188.4604795 72.36615208 200.91238464 84.2880799 211.52612305 98.04443359 C212.31116211 99.02412109 213.09620117 100.00380859 213.9050293 101.01318359 C241.62882754 135.83597925 257.70454202 177.50783347 265.52612305 221.04443359 C265.6535791 221.73956055 265.78103516 222.4346875 265.91235352 223.15087891 C277.68651619 290.15688643 257.81267854 357.71689451 220.06176758 412.86816406 C219.06198073 414.2850321 218.03266895 415.68166332 216.97094727 417.05273438 C214.30451826 420.17968687 214.30451826 420.17968687 213.71631527 424.0366497 C214.6471996 426.34462279 215.68992672 427.57292554 217.45570374 429.32131958 C218.0797258 429.94657532 218.70374786 430.57183105 219.34667969 431.21603394 C220.03503906 431.89046539 220.72339844 432.56489685 221.43261719 433.25976562 C222.15452744 433.97890137 222.87643768 434.69803711 223.620224 435.43896484 C226.01050519 437.81694933 228.41099748 440.1843602 230.8112793 442.55224609 C232.46974242 444.20003737 234.1274014 445.84863836 235.7842865 447.49801636 C240.14942678 451.84034974 244.52261331 456.1744776 248.89837646 460.50610352 C255.90810265 467.44569587 262.91036407 474.3927486 269.90359306 481.34896469 C272.35447423 483.78307315 274.81165178 486.2106991 277.26930237 488.63796997 C278.7628026 490.12101519 280.25605662 491.60430842 281.74902344 493.08789062 C282.43940704 493.76637054 283.12979065 494.44485046 283.84109497 495.14389038 C284.77289833 496.07331451 284.77289833 496.07331451 285.723526 497.02151489 C286.26792863 497.56017748 286.81233126 498.09884007 287.37323093 498.65382576 C288.52612305 500.04443359 288.52612305 500.04443359 288.52612305 502.04443359 C289.0572168 502.25068359 289.58831055 502.45693359 290.13549805 502.66943359 C293.53385741 504.62404551 296.03668233 507.26567076 298.77612305 510.04443359 C299.60756836 510.86427734 299.60756836 510.86427734 300.45581055 511.70068359 C304.52612305 515.79104689 304.52612305 515.79104689 304.52612305 518.04443359 C305.16549805 518.31255859 305.80487305 518.58068359 306.46362305 518.85693359 C308.52612305 520.04443359 308.52612305 520.04443359 309.52612305 523.04443359 C310.51612305 523.37443359 311.50612305 523.70443359 312.52612305 524.04443359 C313.87133789 525.41748047 313.87133789 525.41748047 315.36206055 527.26318359 C318.70239431 531.20207428 322.2594674 534.83519468 325.94018555 538.45068359 C326.81196442 539.31040771 326.81196442 539.31040771 327.70135498 540.1875 C330.1282616 542.57864515 332.55826336 544.96646594 334.99780273 547.34472656 C336.79804707 549.10229062 338.5884039 550.86946913 340.37768555 552.63818359 C340.92051178 553.16238892 341.46333801 553.68659424 342.02261353 554.22668457 C348.82539877 560.98406938 353.04309191 568.15145371 353.83862305 577.85693359 C353.55680173 585.9514682 351.09822051 592.42210065 345.49487305 598.28662109 C338.83112112 604.2363996 332.97080607 606.38526472 324.11206055 606.25537109 C313.13772436 605.36018355 305.27489658 597.10732511 297.95581055 589.63427734 C296.92872482 588.59938927 296.92872482 588.59938927 295.88088989 587.54359436 C293.71608373 585.3611446 291.55815124 583.17206877 289.40112305 580.98193359 C287.23607648 578.78913002 285.06952154 576.59787107 282.89993286 574.40956116 C281.55697933 573.05449547 280.2167059 571.6967664 278.87960815 570.33592224 C275.25065857 566.66839719 271.52517935 563.30326491 267.52612305 560.04443359 C266.4677747 558.91168888 265.43861585 557.74967251 264.46362305 556.54443359 C261.99476203 553.51023919 259.31031158 550.79347809 256.52612305 548.04443359 C255.327444 546.8472798 254.12958499 545.64930457 252.93237305 544.45068359 C252.29428711 543.81259766 251.65620117 543.17451172 250.9987793 542.51708984 C249.03914388 540.55745443 247.07950846 538.59781901 245.11987305 536.63818359 C244.19646118 535.71585938 244.19646118 535.71585938 243.25439453 534.77490234 C241.73683277 533.2554112 240.22658199 531.72862568 238.7175293 530.20068359 C236.5438784 527.97971722 236.5438784 527.97971722 233.96362305 526.04443359 C231.52612305 524.04443359 231.52612305 524.04443359 229.58862305 521.60693359 C227.19208756 518.6294198 224.48353888 516.4586506 221.52612305 514.04443359 C218.70682221 511.3660978 216.13223472 508.5934569 213.65112305 505.60693359 C210.99599297 502.44013782 208.08460394 499.86444556 204.84643555 497.30615234 C204.41073242 496.88978516 203.9750293 496.47341797 203.52612305 496.04443359 C203.52612305 495.38443359 203.52612305 494.72443359 203.52612305 494.04443359 C202.65987305 493.70412109 202.65987305 493.70412109 201.77612305 493.35693359 C198.93081427 491.69717014 197.58958971 489.62376692 195.52612305 487.04443359 C194.37828997 486.00246861 193.20899067 484.98394956 192.02612305 483.98193359 C189.40147248 481.75615112 186.91620658 479.45900953 184.5144043 476.99755859 C183.98975586 476.4601001 183.46510742 475.9226416 182.92456055 475.36889648 C181.88540933 474.29631199 180.85258208 473.21755593 179.8269043 472.13208008 C176.93408765 469.15126718 174.52362959 467.25026281 170.52612305 466.04443359 C169.85709961 466.63869141 169.18807617 467.23294922 168.4987793 467.84521484 C127.50439171 503.22694802 70.30218513 523.01956669 16.52612305 524.04443359 C15.6861377 524.06489746 14.84615234 524.08536133 13.98071289 524.10644531 C-8.36608298 524.59111323 -29.90425867 522.74405197 -51.78637695 518.16552734 C-56.67637591 517.1538883 -61.50283492 516.50529062 -66.47387695 516.04443359 C-66.47387695 515.38443359 -66.47387695 514.72443359 -66.47387695 514.04443359 C-67.06450928 513.94646484 -67.6551416 513.84849609 -68.26367188 513.74755859 C-75.06838422 512.51576828 -81.33461463 510.50856727 -87.78637695 508.04443359 C-88.82745605 507.64853027 -89.86853516 507.25262695 -90.94116211 506.84472656 C-121.37520054 495.05829389 -148.0803855 478.14290622 -172.1574707 456.13818359 C-174.142361 454.34408376 -176.16807707 452.63041779 -178.22387695 450.91943359 C-189.26718786 441.25932527 -198.73305371 429.7805958 -207.47387695 418.04443359 C-207.90152344 417.47370117 -208.32916992 416.90296875 -208.76977539 416.31494141 C-215.28270449 407.57351574 -221.07070983 398.50808705 -226.47387695 389.04443359 C-227.13000977 387.91005859 -227.78614258 386.77568359 -228.4621582 385.60693359 C-262.00518538 326.1454383 -267.17730107 253.69569356 -249.32055664 188.56201172 C-246.33840622 178.13232476 -242.66091812 168.04626496 -238.47387695 158.04443359 C-238.11052246 157.17625 -237.74716797 156.30806641 -237.37280273 155.41357422 C-236.29636176 152.86711412 -235.20358454 150.32874786 -234.09887695 147.79443359 C-233.76509033 147.02486328 -233.43130371 146.25529297 -233.08740234 145.46240234 C-230.71645545 140.16572284 -230.71645545 140.16572284 -228.47387695 139.04443359 C-227.77943498 137.38914734 -227.11903606 135.71954313 -226.47387695 134.04443359 C-221.29188139 124.09957446 -215.17095177 115.01395871 -208.47387695 106.04443359 C-208.06379395 105.48868652 -207.65371094 104.93293945 -207.23120117 104.36035156 C-202.18462953 97.53475824 -196.88072015 91.0888862 -191.05224609 84.91308594 C-188.95878727 82.69458133 -187.17331617 80.59359242 -185.47387695 78.04443359 C-184.81387695 78.04443359 -184.15387695 78.04443359 -183.47387695 78.04443359 C-182.97887695 76.55943359 -182.97887695 76.55943359 -182.47387695 75.04443359 C-181.01293945 73.57177734 -181.01293945 73.57177734 -179.09887695 71.98193359 C-175.79741188 69.19377051 -172.62311342 66.31588387 -169.47387695 63.35693359 C-152.08152187 47.5846883 -131.79630416 34.80332346 -110.47387695 25.04443359 C-109.34208008 24.52623047 -108.2102832 24.00802734 -107.04418945 23.47412109 C-103.54471231 21.93047182 -100.02200486 20.47265789 -96.47387695 19.04443359 C-95.81178223 18.77276367 -95.1496875 18.50109375 -94.4675293 18.22119141 C-64.56555723 6.06636892 -32.18116163 0.57800961 0 0 Z M-117.47387695 88.04443359 C-118.45098633 88.70830078 -119.4280957 89.37216797 -120.43481445 90.05615234 C-165.15393231 121.33330662 -195.77397537 170.84205136 -205.47387695 224.32177734 C-212.48829389 266.75679655 -207.62998397 310.96574038 -189.47387695 350.04443359 C-189.15692871 350.73730469 -188.83998047 351.43017578 -188.51342773 352.14404297 C-180.94816187 368.53741326 -170.91191557 383.12936751 -159.47387695 397.04443359 C-158.8293457 397.84365234 -158.18481445 398.64287109 -157.52075195 399.46630859 C-156.22551244 401.0382012 -154.85980931 402.55189105 -153.47387695 404.04443359 C-152.81387695 404.04443359 -152.15387695 404.04443359 -151.47387695 404.04443359 C-151.2109082 404.63353516 -150.94793945 405.22263672 -150.67700195 405.82958984 C-147.56101723 411.56583444 -141.5977271 416.11217651 -136.47387695 420.04443359 C-135.81387695 420.04443359 -135.15387695 420.04443359 -134.47387695 420.04443359 C-133.97887695 421.52943359 -133.97887695 421.52943359 -133.47387695 423.04443359 C-131.20120929 424.98473484 -128.93814631 426.77677426 -126.53637695 428.54443359 C-125.46480347 429.33684448 -125.46480347 429.33684448 -124.37158203 430.14526367 C-86.32615322 457.84207155 -41.33168267 472.31498849 5.65112305 472.23193359 C6.68174362 472.23052872 6.68174362 472.23052872 7.73318481 472.22909546 C18.14717133 472.19837127 28.26240606 471.90083158 38.52612305 470.04443359 C39.3965625 469.89377441 40.26700195 469.74311523 41.16381836 469.58789062 C81.26483157 462.48595889 124.34296104 444.69980279 152.52612305 414.04443359 C152.52612305 413.38443359 152.52612305 412.72443359 152.52612305 412.04443359 C153.10104492 411.80466797 153.6759668 411.56490234 154.26831055 411.31787109 C158.91594897 408.6965387 162.082559 404.04288473 165.52612305 400.04443359 C166.29053711 399.18978516 167.05495117 398.33513672 167.8425293 397.45458984 C194.08033998 367.32649422 209.44067974 330.28191882 215.52612305 291.04443359 C215.63069824 290.38701172 215.73527344 289.72958984 215.84301758 289.05224609 C216.9442523 280.90429115 216.7673107 272.62638944 216.77612305 264.41943359 C216.7777948 263.59995239 216.77946655 262.78047119 216.78118896 261.93615723 C216.78312664 246.06192951 215.58737577 230.65822443 212.00415039 215.15869141 C211.66169821 213.64406632 211.35116507 212.1220868 211.06176758 210.59643555 C203.62832045 175.1808372 183.52465939 141.77352844 158.52612305 116.04443359 C158.00904785 115.50689453 157.49197266 114.96935547 156.95922852 114.41552734 C149.88565102 107.08469019 142.63925646 100.23544724 134.52612305 94.04443359 C133.02952148 92.88041016 133.02952148 92.88041016 131.50268555 91.69287109 C60.37767549 37.78283162 -44.87171155 37.34425848 -117.47387695 88.04443359 Z " fill="#5AAF75" transform="translate(486.473876953125,203.95556640625)"/>
<path d="M0 0 C11.54318522 9.01711421 17.73083594 19.82914261 23.8203125 32.828125 C24.1503125 33.488125 24.4803125 34.148125 24.8203125 34.828125 C25.8103125 34.68375 26.8003125 34.539375 27.8203125 34.390625 C28.46355469 34.30039062 29.10679687 34.21015625 29.76953125 34.1171875 C31.72513277 33.84154081 33.6790308 33.55388787 35.6328125 33.265625 C51.86296609 31.37262429 67.58145135 34.99677985 80.7109375 45.0390625 C83.19106993 47.21474754 85.52241861 49.46201905 87.8203125 51.828125 C88.38105469 52.36824219 88.94179688 52.90835938 89.51953125 53.46484375 C99.9176218 64.29959952 104.24097667 80.03845983 104.0234375 94.66796875 C103.18504405 107.71143614 96.99224539 122.62256113 87.7890625 132.09765625 C78.57344376 140.19789256 66.58622517 149.06334282 53.8203125 148.828125 C53.83030525 150.25846321 53.83030525 150.25846321 53.84049988 151.71769714 C53.90133649 160.707667 53.94629738 169.69759505 53.97574902 178.68772411 C53.99139947 183.30956291 54.01262643 187.93123542 54.04663086 192.55297852 C54.07924642 197.01391037 54.09717018 201.47468236 54.10494423 205.93572426 C54.11048379 207.63697132 54.12130126 209.33820972 54.13750267 211.03938866 C54.15930641 213.42383044 54.16227824 215.8076131 54.16088867 218.19213867 C54.1716745 218.89416916 54.18246033 219.59619965 54.193573 220.31950378 C54.16626434 224.65527806 53.4742192 227.37734684 50.8203125 230.828125 C47.88248396 232.29703927 44.91812305 231.97614479 41.69729614 231.97529602 C40.95520303 231.97897271 40.21310991 231.9826494 39.44852912 231.9864375 C36.94891486 231.99749655 34.44934213 232.0013219 31.94970703 232.00512695 C30.1628201 232.01138983 28.37593448 232.01803648 26.58905029 232.02503967 C21.72542344 232.04246354 16.86180642 232.05300481 11.99815607 232.0612452 C8.96183125 232.06639149 5.92550951 232.07246733 2.88918686 232.07875633 C-6.60419364 232.09781066 -16.09756634 232.11204234 -25.59096229 232.1203683 C-36.56207154 232.13014832 -47.53297944 232.15648676 -58.50401771 232.19686919 C-66.97623904 232.22698774 -75.44840251 232.24183304 -83.92067635 232.24514931 C-88.98462162 232.24750432 -94.04835183 232.25652324 -99.11223984 232.28161049 C-103.87452546 232.30482236 -108.63645338 232.30915233 -113.39878082 232.29884911 C-115.14835166 232.29835198 -116.8979397 232.30472418 -118.64745712 232.31840515 C-121.03297241 232.33601849 -123.41718919 232.32907125 -125.80270386 232.31587219 C-126.49784084 232.32684144 -127.19297783 232.33781068 -127.90917957 232.34911233 C-131.2679018 232.30412959 -132.91307497 232.03992943 -135.57824898 229.9226408 C-138.43847929 226.18175566 -138.34774392 223.1793569 -138.38500977 218.62451172 C-138.39490936 217.8829483 -138.40480896 217.14138489 -138.41500854 216.37734985 C-138.44665113 213.92087012 -138.47139181 211.46437103 -138.49609375 209.0078125 C-138.5166609 207.306727 -138.53765731 205.60564664 -138.55906677 203.90457153 C-138.61431214 199.42311764 -138.66371053 194.94161744 -138.71191406 190.46008301 C-138.7621111 185.88871123 -138.81780654 181.31740687 -138.87304688 176.74609375 C-138.98065859 167.77349506 -139.08209686 158.80083789 -139.1796875 149.828125 C-139.98067871 149.5705542 -140.78166992 149.3129834 -141.60693359 149.04760742 C-142.66992676 148.70060791 -143.73291992 148.3536084 -144.828125 147.99609375 C-145.87661621 147.65602295 -146.92510742 147.31595215 -148.00537109 146.96557617 C-161.74761596 142.04132461 -172.89945987 132.4710899 -180.1796875 119.828125 C-188.15114835 102.80032993 -188.6397667 87.57794768 -183.1796875 69.828125 C-177.7637966 55.98484719 -166.41730804 44.5383553 -153.1796875 37.828125 C-146.63575734 35.11256007 -140.24778873 33.29160705 -133.1796875 32.828125 C-132.54417969 32.7765625 -131.90867187 32.725 -131.25390625 32.671875 C-123.44306697 32.31884272 -115.78576748 34.26024594 -108.1796875 35.828125 C-108.04433594 35.24546875 -107.90898437 34.6628125 -107.76953125 34.0625 C-103.06943808 16.16274398 -91.03171191 3.94845554 -75.75 -5.70703125 C-51.63390695 -18.98306227 -22.11784067 -15.10751771 0 0 Z " fill="#5AB076" transform="translate(532.1796875,322.171875)"/>
<path d="M0 0 C1.68821677 0.0019631 3.37643402 0.00354428 5.06465149 0.004776 C10.55948804 0.01088354 16.05426479 0.02811374 21.54907227 0.04638672 C23.44842075 0.05218499 25.34776932 0.05795136 27.247118 0.06368637 C35.14227832 0.08830361 43.03741942 0.11576538 50.93253994 0.1510334 C62.22125055 0.20139559 73.50971635 0.2346932 84.79853767 0.24432194 C92.75643111 0.25245982 100.71412227 0.27957834 108.67191178 0.32092845 C113.41882703 0.34511041 118.16543052 0.36099528 122.91241264 0.35666275 C127.3688752 0.35303078 131.82461602 0.3728761 136.2809124 0.41084099 C137.91553878 0.42068527 139.55024191 0.42201687 141.1848793 0.41421318 C143.41665029 0.40485321 145.64611494 0.42614653 147.87767029 0.45510864 C149.12586265 0.45917284 150.374055 0.46323704 151.66007137 0.46742439 C155.81093059 1.27227934 157.28345444 2.87978607 159.92797852 6.10107422 C162.03885669 10.32283056 161.4334774 15.51711842 160.92797852 20.10107422 C158.81035086 25.77850698 155.27448882 29.25718576 149.92797852 32.10107422 C146.37061582 33.28882752 142.96077526 33.22959412 139.23002625 33.23478699 C138.55776137 33.23705254 137.88549649 33.2393181 137.19285995 33.24165231 C134.94138132 33.24797974 132.68996309 33.24716375 130.43847656 33.24633789 C128.8236483 33.24933019 127.20882075 33.25273289 125.59399414 33.2565155 C121.20753343 33.26535313 116.82109223 33.26769354 112.43462348 33.26833129 C109.69341628 33.269042 106.95221404 33.27117674 104.21100807 33.27382851 C94.64571442 33.2830816 85.0804347 33.2871635 75.51513672 33.28637695 C66.60266307 33.28577637 57.69025 33.29632439 48.77779168 33.31212062 C41.12330964 33.32520317 33.46884737 33.33056054 25.81435424 33.32992154 C21.24393289 33.32966674 16.67356534 33.33250825 12.10315514 33.34309959 C7.80300195 33.35279242 3.50295387 33.35285162 -0.79720306 33.34558296 C-2.37296134 33.34453855 -3.94872619 33.3468915 -5.52447319 33.35294342 C-7.68081101 33.36068687 -9.83678796 33.35600322 -11.99311829 33.34831238 C-13.1982372 33.34885715 -14.40335611 33.34940191 -15.64499378 33.34996319 C-21.86419641 32.89829163 -26.56723709 31.48072571 -31.07202148 27.10107422 C-34.8981643 21.77180387 -35.62128891 16.58242981 -35.07202148 10.10107422 C-32.29265815 2.71139255 -32.29265815 2.71139255 -29.07202148 1.10107422 C-19.45310912 -0.25439237 -9.68996422 -0.03248632 0 0 Z " fill="#59AE74" transform="translate(427.072021484375,570.89892578125)"/>
<path d="M0 0 C2.63931592 1.31965796 2.89555617 2.56366067 4.1015625 5.234375 C4.70701904 6.55127319 4.70701904 6.55127319 5.32470703 7.89477539 C5.75380371 8.83699951 6.18290039 9.77922363 6.625 10.75 C10.58405132 19.2482961 14.81563973 27.17613784 20 35 C20.64582031 36.0003125 21.29164063 37.000625 21.95703125 38.03125 C28.80263408 48.50893795 36.15053757 58.32790966 44.6796875 67.49609375 C46.59467361 69.56260233 48.43233715 71.66144673 50.25 73.8125 C58.9462857 83.78041239 68.51858496 92.93619602 79 101 C79.87269531 101.68964844 80.74539063 102.37929688 81.64453125 103.08984375 C104.67469356 120.90198327 130.2594289 135.04999231 158 144 C158 144.33 158 144.66 158 145 C151.80437227 144.47136282 146.67730312 143.0417116 140.9375 140.6875 C140.07753418 140.33631104 139.21756836 139.98512207 138.33154297 139.62329102 C114.71458925 129.7280971 92.64991992 116.4736646 73.54492188 99.36669922 C71.85885582 97.87513825 70.14450142 96.42181343 68.421875 94.97265625 C58.89140632 86.94733127 50.01412549 78.56524656 42 69 C41.54641113 68.46552246 41.09282227 67.93104492 40.62548828 67.38037109 C25.77199254 49.82106117 12.71122621 30.4592915 2.875 9.625 C2.43160278 8.68781128 2.43160278 8.68781128 1.97924805 7.73168945 C0.71447985 4.95537844 0 3.0906258 0 0 Z " fill="#509B61" transform="translate(249,568)"/>
<path d="M0 0 C4.63531969 0.61507127 8.42553284 2.51317708 12.5 4.6875 C13.22977051 5.07615234 13.95954102 5.46480469 14.71142578 5.86523438 C28.67748095 13.49426891 42.00180993 22.54469368 54 33 C55.07764253 33.89797926 56.15719181 34.7936735 57.23828125 35.6875 C70.00462126 46.31534339 81.83903818 57.83048523 92 71 C92.78503906 71.9796875 93.57007813 72.959375 94.37890625 73.96875 C111.36418836 95.30330896 139.18725886 133.56563485 137 162 C134.69427769 158.54141653 133.66271821 155.04813527 132.4375 151.125 C123.38730029 123.23346546 109.66996836 96.68593409 91 74 C90.28199219 73.09894531 89.56398438 72.19789063 88.82421875 71.26953125 C84.85914135 66.33151048 80.86169166 61.64950542 76.21484375 57.33984375 C75 56 75 56 75 54 C74.4225 53.773125 73.845 53.54625 73.25 53.3125 C71 52 71 52 69.18359375 49.6875 C66.93017804 46.91406527 64.61305656 44.89804031 61.8125 42.6875 C58.36298205 39.93242448 55.03397326 37.14203361 51.8125 34.125 C45.98121466 28.87893326 39.43292499 24.64085254 32.92333984 20.29443359 C31.22292052 19.15002851 29.54154054 17.97744374 27.86328125 16.80078125 C21.61593458 12.46258281 15.20964989 8.93514702 8.34179688 5.70043945 C5.09584892 4.15427123 2.30099423 2.82197406 0 0 Z " fill="#509D62" transform="translate(606,231)"/>
<path d="M0 0 C4.60877422 3.85464118 8.98990949 7.84756022 13.22314453 12.10961914 C13.80134949 12.68767807 14.37955444 13.265737 14.97528076 13.86131287 C16.86350827 15.7502303 18.74817872 17.64265383 20.6328125 19.53515625 C21.95582468 20.86003707 23.27906045 22.18469464 24.60250854 23.50914001 C28.07153789 26.9819693 31.53755547 30.45778908 35.00292969 33.93426514 C38.52488175 37.46644837 42.04966306 40.99580573 45.57421875 44.52539062 C51.26737985 50.22731638 56.95883993 55.93093321 62.64797974 61.63687134 C63.63502541 62.62676075 64.62229314 63.61642881 65.60982132 64.60583687 C66.9814955 65.98144247 68.35037175 67.35983616 69.71920776 68.73826599 C72.74286021 71.7366529 75.96903766 74.4678739 79.20703125 77.23046875 C80.09455078 78.10638672 80.09455078 78.10638672 81 79 C81 79.66 81 80.32 81 81 C81.5775 81.28617188 82.155 81.57234375 82.75 81.8671875 C84.15875618 82.5764571 85.55691798 83.30765227 86.9375 84.0703125 C93.23619735 87.29123728 98.99626802 88.04873591 106 87 C112.53031982 84.86857617 117.31832688 81.80142431 121 76 C123.7938419 69.87005154 124.59592442 63.67421396 125 57 C125.66 57.33 126.32 57.66 127 58 C127.46374473 66.34740508 126.2578579 73.71093597 120.8125 80.3125 C115.74490713 85.61629424 110.1232156 89.54692651 102.703125 90.203125 C91.86446212 90.41023321 84.99852008 86.48071558 77.09906006 79.26315308 C75.18328724 77.39615493 73.30143224 75.50096186 71.4296875 73.58984375 C70.74496368 72.89991837 70.06023987 72.20999298 69.35476685 71.49916077 C67.18996069 69.31671101 65.0320282 67.12763517 62.875 64.9375 C60.70995344 62.74469643 58.54339849 60.55343748 56.37380981 58.36512756 C55.03085628 57.01006188 53.69058285 55.65233281 52.35348511 54.29148865 C48.72453553 50.6239636 44.9990563 47.25883131 41 44 C39.94165166 42.86725529 38.9124928 41.70523892 37.9375 40.5 C35.46863899 37.46580559 32.78418853 34.7490445 30 32 C28.80132095 30.8028462 27.60346194 29.60487098 26.40625 28.40625 C25.76816406 27.76816406 25.13007812 27.13007812 24.47265625 26.47265625 C22.51302083 24.51302083 20.55338542 22.55338542 18.59375 20.59375 C17.97822266 19.97894775 17.36269531 19.36414551 16.72851562 18.73071289 C15.65131342 17.65214137 14.57663713 16.5710338 13.50585938 15.48608398 C11.57266935 13.53034008 9.67839461 11.75075583 7.5 10.0625 C4.51433661 7.5993277 2.34439608 5.08120627 0 2 C0 1.34 0 0.68 0 0 Z " fill="#50985F" transform="translate(713,720)"/>
<path d="M0 0 C2.86697492 1.28519565 4.97607712 2.57129254 7 5 C7 5.66 7 6.32 7 7 C7.53109375 7.20625 8.0621875 7.4125 8.609375 7.625 C12.00773436 9.57961192 14.51055928 12.22123717 17.25 15 C17.80429687 15.5465625 18.35859375 16.093125 18.9296875 16.65625 C23 20.7466133 23 20.7466133 23 23 C23.639375 23.268125 24.27875 23.53625 24.9375 23.8125 C27 25 27 25 28 28 C28.99 28.33 29.98 28.66 31 29 C32.34521484 30.37304688 32.34521484 30.37304688 33.8359375 32.21875 C37.17627126 36.15764068 40.73334436 39.79076109 44.4140625 43.40625 C44.99524841 43.97939941 45.57643433 44.55254883 46.17523193 45.14306641 C48.60213855 47.53421156 51.03214031 49.92203234 53.47167969 52.30029297 C55.27192402 54.05785703 57.06228086 55.82503553 58.8515625 57.59375 C59.39438873 58.11795532 59.93721497 58.64216064 60.49649048 59.18225098 C64.25686295 62.91752748 67.98027642 67.03987438 70 72 C69.62832642 74.24060059 69.62832642 74.24060059 69 76 C68.68546875 75.39671875 68.3709375 74.7934375 68.046875 74.171875 C65.73240977 69.8496809 63.62981758 66.36094221 60 63 C60 62.34 60 61.68 60 61 C59.34 61 58.68 61 58 61 C56.44921875 59.390625 56.44921875 59.390625 54.6875 57.25 C52.69441586 54.89939355 50.91352052 52.93081642 48.5 51 C46.29699039 49.23759231 44.7273917 47.591155 42.91967773 45.45263672 C38.76458676 40.65500451 34.30258034 36.21200306 29.78515625 31.7578125 C28.03047056 30.01575432 26.275917 28.27356304 24.52148438 26.53125 C21.77554699 23.81027793 19.02802619 21.0909403 16.27807617 18.37402344 C13.60946113 15.7354247 10.94694531 13.09079443 8.28515625 10.4453125 C7.45403824 9.62765411 6.62292023 8.80999573 5.76661682 7.96755981 C5.00840134 7.21272308 4.25018585 6.45788635 3.46899414 5.68017578 C2.79727676 5.01591583 2.12555939 4.35165588 1.43348694 3.66726685 C0 2 0 2 0 0 Z " fill="#4F995E" transform="translate(768,699)"/>
<path d="M0 0 C0.66 0 1.32 0 2 0 C2.18337404 5.31784727 1.86916575 10.19005098 1.00439453 15.44384766 C-0.07159279 22.76330663 -0.25790404 29.88623136 -0.1953125 37.2734375 C-0.1924826 38.56319489 -0.18965271 39.85295227 -0.18673706 41.18179321 C-0.17921576 44.55843318 -0.15967116 47.93489234 -0.1373291 51.3114624 C-0.11661786 54.77792924 -0.10768215 58.24442621 -0.09765625 61.7109375 C-0.07641031 68.47403113 -0.0424196 75.23700681 0 82 C-0.66 81.67 -1.32 81.34 -2 81 C-2.41064453 78.84545898 -2.41064453 78.84545898 -2.6328125 75.99609375 C-2.71692383 74.95396729 -2.80103516 73.91184082 -2.88769531 72.83813477 C-2.96600586 71.71592529 -3.04431641 70.59371582 -3.125 69.4375 C-3.2502002 67.71648071 -3.2502002 67.71648071 -3.37792969 65.96069336 C-4.8959139 43.95456922 -3.71925824 21.76161738 0 0 Z " fill="#519E63" transform="translate(231,419)"/>
<path d="M0 0 C3.03767912 1.34714466 4.99668202 2.82166703 7.25 5.25 C10.27643253 8.38034438 13.44695102 10.94827686 17.0078125 13.4453125 C19 15 19 15 21.3125 17.3515625 C24.31565195 20.31106399 27.47219196 22.7742576 30.875 25.25 C31.52267334 25.72308594 32.17034668 26.19617188 32.83764648 26.68359375 C41.43185506 32.86537473 50.47956525 38.36295416 60 43 C60 43.66 60 44.32 60 45 C37.39574413 38.14405453 15.75892754 18.11691128 0 1 C0 0.67 0 0.34 0 0 Z " fill="#52A165" transform="translate(333,609)"/>
<path d="M0 0 C0.54785156 0.03029297 1.09570312 0.06058594 1.66015625 0.09179688 C22.77122281 1.20742234 43.86721635 1.10239515 65 1 C64.67 1.66 64.34 2.32 64 3 C43.07143253 6.10704223 20.91098281 3.98925479 0 2 C0 1.34 0 0.68 0 0 Z " fill="#54A369" transform="translate(455,724)"/>
<path d="M0 0 C0 0.66 0 1.32 0 2 C-1.54494141 2.67482422 -1.54494141 2.67482422 -3.12109375 3.36328125 C-14.1239501 8.28705295 -24.08425778 14.16371319 -34 21 C-35.00804687 21.6909375 -36.01609375 22.381875 -37.0546875 23.09375 C-44.40191723 28.29005161 -51.19976134 34.11871251 -58 40 C-58.66 39.67 -59.32 39.34 -60 39 C-46.8729496 24.95710888 -29.97147968 14.57691391 -13.25 5.375 C-12.28457275 4.84148926 -11.31914551 4.30797852 -10.32446289 3.75830078 C-9.41817139 3.2682959 -8.51187988 2.77829102 -7.578125 2.2734375 C-6.76762695 1.83435059 -5.95712891 1.39526367 -5.12207031 0.94287109 C-3 0 -3 0 0 0 Z " fill="#509D62" transform="translate(403,272)"/>
<path d="M0 0 C13.40315973 4.46771991 25.44065836 31.50599302 32.3125 43.25 C32.96863281 44.36890625 33.62476563 45.4878125 34.30078125 46.640625 C36.06354515 50.12562949 37.05720643 53.22882573 38 57 C37.34 57 36.68 57 36 57 C35.53851562 56.030625 35.07703125 55.06125 34.6015625 54.0625 C25.89473643 36.0544788 15.24254013 18.22733469 1.3984375 3.671875 C0 2 0 2 0 0 Z " fill="#519D62" transform="translate(648,322)"/>
<path d="M0 0 C0.495 0.99 0.495 0.99 1 2 C0.40574219 2.72960937 -0.18851562 3.45921875 -0.80078125 4.2109375 C-13.95699521 20.66359306 -23.64655543 39.20941113 -33 58 C-33.33 57.34 -33.66 56.68 -34 56 C-32.66815587 52.2009692 -30.75518841 48.61903134 -29 45 C-28.41128181 43.74747879 -27.82274712 42.49487131 -27.234375 41.2421875 C-20.3551964 26.82178743 -11.39033217 11.39033217 0 0 Z " fill="#519D62" transform="translate(326,329)"/>
<path d="M0 0 C0.66 0 1.32 0 2 0 C4.52456321 10.92630958 2.91414573 22.7990188 2.125 33.875 C2.04660889 35.04699951 1.96821777 36.21899902 1.88745117 37.42651367 C1.80342041 38.52068604 1.71938965 39.6148584 1.6328125 40.7421875 C1.55949707 41.7307373 1.48618164 42.71928711 1.41064453 43.73779297 C1.27513184 44.48432129 1.13961914 45.23084961 1 46 C0.01 46.495 0.01 46.495 -1 47 C-0.67 31.49 -0.34 15.98 0 0 Z " fill="#529F64" transform="translate(752,456)"/>
<path d="M0 0 C7.29031932 1.24508824 12.44833134 7.97688065 16.59130859 13.65356445 C27 28.55602086 27 28.55602086 27 37 C27.66 37.33 28.32 37.66 29 38 C28.01 38 27.02 38 26 38 C25.5875 36.97261719 25.175 35.94523437 24.75 34.88671875 C19.76311476 22.79264406 13.64429893 12.98506837 4 4 C2.66666667 2.66666667 1.33333333 1.33333333 0 0 Z " fill="#52A165" transform="translate(529,322)"/>
<path d="M0 0 C3.37013902 3.09117897 5.70275178 6.50046479 8.0625 10.375 C11.3817278 15.6820976 14.93547823 20.71031821 18.8125 25.625 C19.49614624 26.49390869 19.49614624 26.49390869 20.19360352 27.38037109 C22.63740966 30.43749113 25.17040991 33.29572975 28 36 C27.67 36.99 27.34 37.98 27 39 C0 10.66666667 0 10.66666667 0 0 Z " fill="#4F9E62" transform="translate(304,569)"/>
<path d="M0 0 C0.83756836 0.03077637 1.67513672 0.06155273 2.53808594 0.09326172 C3.32989258 0.13209473 4.12169922 0.17092773 4.9375 0.2109375 C6.00291016 0.25806885 6.00291016 0.25806885 7.08984375 0.30615234 C9 0.625 9 0.625 12 2.625 C6.78557724 2.6744186 1.57129066 2.71072831 -3.64331055 2.73486328 C-5.41742324 2.74492411 -7.19151935 2.75857422 -8.96557617 2.77587891 C-11.51485284 2.80012378 -14.06391037 2.81148218 -16.61328125 2.8203125 C-17.80405022 2.83579636 -17.80405022 2.83579636 -19.01887512 2.85159302 C-22.88223043 2.8523811 -24.70839446 2.81940369 -28 0.625 C-18.71102658 -1.02637305 -9.38184083 -0.40813658 0 0 Z " fill="#54A268" transform="translate(505,204.375)"/>
<path d="M0 0 C2.86697492 1.28519565 4.97607712 2.57129254 7 5 C7 5.66 7 6.32 7 7 C7.53109375 7.20625 8.0621875 7.4125 8.609375 7.625 C12.00773436 9.57961192 14.51055928 12.22123717 17.25 15 C17.80429687 15.5465625 18.35859375 16.093125 18.9296875 16.65625 C23 20.7466133 23 20.7466133 23 23 C23.639375 23.268125 24.27875 23.53625 24.9375 23.8125 C27 25 27 25 28 28 C28.66 28.33 29.32 28.66 30 29 C25.45533625 28.13787764 23.07094127 25.48713901 19.921875 22.28515625 C19.06471893 21.42874794 19.06471893 21.42874794 18.19024658 20.55503845 C16.98650364 19.34895836 15.78644444 18.13919193 14.58984375 16.92602539 C12.75158867 15.06410912 10.90030578 13.21593797 9.046875 11.36914062 C7.87941269 10.19610382 6.71271888 9.02230157 5.546875 7.84765625 C4.99070496 7.29239761 4.43453491 6.73713898 3.86151123 6.16505432 C0 2.23103346 0 2.23103346 0 0 Z " fill="#55A166" transform="translate(768,699)"/>
<path d="M0 0 C0.66 0.33 1.32 0.66 2 1 C1.46632813 1.80179687 0.93265625 2.60359375 0.3828125 3.4296875 C-7.13885694 14.86071305 -13.97208128 26.71082377 -20 39 C-21.39864092 35.82127065 -20.89282517 34.69888978 -19.6875 31.3125 C-18 28 -18 28 -16 27 C-15.30937918 25.34311584 -14.64851671 23.6738125 -14 22 C-12.78145155 19.7028715 -11.54393276 17.44087535 -10.25 15.1875 C-9.89873047 14.57310059 -9.54746094 13.95870117 -9.18554688 13.32568359 C-6.45190471 8.618709 -3.45476851 4.21377069 0 0 Z " fill="#519C61" transform="translate(274,316)"/>
<path d="M0 0 C0.33 0 0.66 0 1 0 C2.14069132 13.66792641 2.10657507 27.29280589 2 41 C1.67 41 1.34 41 1 41 C-0.77749247 27.28791525 -2.20773878 13.75862809 0 0 Z " fill="#4D9C61" transform="translate(277,452)"/>
<path d="M0 0 C4.25976189 1.48062356 7.74533576 3.69113316 11.375 6.3125 C11.97135254 6.74111328 12.56770508 7.16972656 13.18212891 7.61132812 C18.08762273 11.20351005 22.76364273 15.03927417 27.375 19 C28.0354834 19.56372314 28.6959668 20.12744629 29.37646484 20.70825195 C30.95937988 22.09251263 32.48577658 23.54091637 34 25 C34 25.66 34 26.32 34 27 C30.38260377 25.46156712 28.00995857 23.27223365 25.1875 20.5625 C20.11420769 15.85158571 14.77650992 11.75269131 9.12768555 7.75610352 C5.79273045 5.38358809 2.79953334 3.01704094 0 0 Z " fill="#519E63" transform="translate(606,287)"/>
<path d="M0 0 C13.38509068 0.23077743 23.91714673 7.79223519 33 17 C33.58394531 17.58265625 34.16789063 18.1653125 34.76953125 18.765625 C35.17558594 19.17296875 35.58164062 19.5803125 36 20 C35.505 21.485 35.505 21.485 35 23 C34.55011719 22.43152344 34.10023438 21.86304688 33.63671875 21.27734375 C26.12787024 12.26371598 17.47486346 7.27448068 6.62890625 3.04296875 C4.34270831 2.13596303 2.17815037 1.13799346 0 0 Z " fill="#51A064" transform="translate(587,357)"/>
<path d="M0 0 C2.61761385 1.30880693 2.71017602 2.34713788 3.734375 5.05078125 C4.05865479 5.88931641 4.38293457 6.72785156 4.71704102 7.59179688 C5.05791748 8.48962891 5.39879395 9.38746094 5.75 10.3125 C8.47852835 17.37117963 11.36731912 24.07718326 15.06640625 30.6875 C16.12484703 33.30924453 16.00364584 34.40374251 15 37 C10.70283143 28.70702273 6.59544787 20.37437495 3 11.75 C2.69763428 11.03593994 2.39526855 10.32187988 2.08374023 9.58618164 C0.66620111 6.11891829 0 3.8029744 0 0 Z " fill="#4F9D62" transform="translate(287,531)"/>
<path d="M0 0 C-2.95278968 1.96852645 -5.06372397 2.6661845 -8.4375 3.625 C-18.332785 6.83557673 -26.37486282 13.0680571 -34 20 C-30.26565118 11.04974007 -20.55508968 5.58019719 -12 2 C-11.15695312 1.63003906 -10.31390625 1.26007813 -9.4453125 0.87890625 C-6.23495345 -0.27497679 -3.38219992 -0.13263529 0 0 Z " fill="#509D61" transform="translate(394,357)"/>
<path d="M0 0 C3.56764285 1.51376081 5.83706287 3.60513129 8.546875 6.3515625 C9.39121094 7.20234375 10.23554687 8.053125 11.10546875 8.9296875 C12.41451172 10.26386719 12.41451172 10.26386719 13.75 11.625 C14.63816406 12.5221875 15.52632812 13.419375 16.44140625 14.34375 C18.63216969 16.55807004 20.81812763 18.77692435 23 21 C22.01 21.33 21.02 21.66 20 22 C19.33613281 21.33355469 18.67226563 20.66710937 17.98828125 19.98046875 C15.74926067 17.73986861 13.49224457 15.51839724 11.23046875 13.30078125 C9.88272358 11.97144431 8.53506904 10.64201548 7.1875 9.3125 C6.49462891 8.63638672 5.80175781 7.96027344 5.08789062 7.26367188 C4.43369141 6.61591797 3.77949219 5.96816406 3.10546875 5.30078125 C2.50887451 4.71466064 1.91228027 4.12854004 1.29760742 3.5246582 C0 2 0 2 0 0 Z " fill="#539F64" transform="translate(664,672)"/>
<path d="M0 0 C3.36335594 1.45745424 5.54534005 3.31117854 8.109375 5.9140625 C8.86347656 6.67460938 9.61757813 7.43515625 10.39453125 8.21875 C11.17183594 9.0128125 11.94914063 9.806875 12.75 10.625 C13.54277344 11.42679688 14.33554687 12.22859375 15.15234375 13.0546875 C17.10614493 15.03202846 19.05512103 17.01388909 21 19 C20.67 19.99 20.34 20.98 20 22 C17.1453424 19.19469153 14.29722769 16.38292304 11.45507812 13.56494141 C10.48681462 12.60675044 9.51676574 11.65036018 8.54492188 10.69580078 C7.1502903 9.3253618 5.76253479 7.94793633 4.375 6.5703125 C3.53710938 5.74289551 2.69921875 4.91547852 1.8359375 4.06298828 C0 2 0 2 0 0 Z " fill="#54A267" transform="translate(728,659)"/>
<path d="M0 0 C5.06623768 4.23816537 9.80038069 8.67408963 14.4375 13.375 C15.07365234 14.01566406 15.70980469 14.65632812 16.36523438 15.31640625 C17.91250332 16.87530879 19.45736492 18.43651416 21 20 C20.67 20.66 20.34 21.32 20 22 C9.53872196 12.67625899 9.53872196 12.67625899 5 8 C4.1028125 7.1646875 4.1028125 7.1646875 3.1875 6.3125 C2 5 2 5 2 3 C1.34 3 0.68 3 0 3 C0 2.01 0 1.02 0 0 Z " fill="#519B61" transform="translate(688,695)"/>
<path d="M0 0 C0.66 0.33 1.32 0.66 2 1 C1.43152344 1.53367187 0.86304688 2.06734375 0.27734375 2.6171875 C-4.60508688 7.32844777 -8.72797085 12.09195628 -12.4921875 17.73828125 C-13.92448918 19.88673377 -15.43237645 21.94894763 -17 24 C-16.6944076 17.88815191 -13.75656287 14.51484818 -10 10 C-9.47535156 9.35289062 -8.95070313 8.70578125 -8.41015625 8.0390625 C-5.84198132 4.94156907 -3.39889422 2.22235391 0 0 Z " fill="#529F63" transform="translate(446,324)"/>
<path d="M0 0 C0.99 0.33 1.98 0.66 3 1 C2.18208984 1.87398438 2.18208984 1.87398438 1.34765625 2.765625 C-4.58192861 9.21214802 -9.85671372 15.92342172 -15 23 C-15.33 22.01 -15.66 21.02 -16 20 C-14.36846106 17.59452592 -12.72307315 15.41592154 -10.875 13.1875 C-10.14410156 12.28161133 -10.14410156 12.28161133 -9.3984375 11.35742188 C-6.30666821 7.53793561 -3.15205879 3.76976995 0 0 Z " fill="#509C61" transform="translate(293,291)"/>
<path d="M0 0 C0.8971875 0.309375 0.8971875 0.309375 1.8125 0.625 C1.03386597 1.05582886 1.03386597 1.05582886 0.23950195 1.49536133 C-2.13250387 2.8084974 -4.50375711 4.12298679 -6.875 5.4375 C-7.69162109 5.88931641 -8.50824219 6.34113281 -9.34960938 6.80664062 C-12.65135589 8.63797371 -15.93055722 10.46648973 -19.14453125 12.44921875 C-21.1875 13.625 -21.1875 13.625 -23.1875 13.625 C-23.1875 12.965 -23.1875 12.305 -23.1875 11.625 C-22.65793701 11.33254395 -22.12837402 11.04008789 -21.58276367 10.73876953 C-19.17943111 9.41052194 -16.77720619 8.08028352 -14.375 6.75 C-13.54162109 6.28980469 -12.70824219 5.82960937 -11.84960938 5.35546875 C-11.04716797 4.91074219 -10.24472656 4.46601563 -9.41796875 4.0078125 C-8.67957764 3.59934082 -7.94118652 3.19086914 -7.18041992 2.77001953 C-1.81701841 -0.31148887 -1.81701841 -0.31148887 0 0 Z " fill="#529E64" transform="translate(371.1875,232.375)"/>
<path d="M0 0 C4.32504836 1.65863505 7.09418825 4.871041 10.25 8.125 C11.08144531 8.96998047 11.08144531 8.96998047 11.9296875 9.83203125 C13.29104485 11.21686028 14.64614859 12.60783204 16 14 C15.67 14.99 15.34 15.98 15 17 C12.49195282 14.54976242 9.9949924 12.08852402 7.5 9.625 C6.78457031 8.92632813 6.06914063 8.22765625 5.33203125 7.5078125 C4.65527344 6.8375 3.97851562 6.1671875 3.28125 5.4765625 C2.65283203 4.85861816 2.02441406 4.24067383 1.37695312 3.60400391 C0 2 0 2 0 0 Z " fill="#54A167" transform="translate(751,682)"/>
<path d="M0 0 C5.79859195 0.56810529 10.97686594 1.73679735 16.5 3.5625 C17.22703125 3.79646484 17.9540625 4.03042969 18.703125 4.27148438 C20.47080261 4.84132781 22.23570969 5.41975404 24 6 C24 6.66 24 7.32 24 8 C15.83297371 7.24027662 6.34988784 5.40744706 0 0 Z " fill="#51A064" transform="translate(411,662)"/>
<path d="M0 0 C0.99 0.33 1.98 0.66 3 1 C2.62488281 1.51046875 2.24976563 2.0209375 1.86328125 2.546875 C-2.45324622 8.67917095 -5.32696858 15.00990456 -8 22 C-8.33 22 -8.66 22 -9 22 C-8.22910536 13.21180109 -5.61176379 6.87893626 0 0 Z " fill="#529F63" transform="translate(357,378)"/>
<path d="M0 0 C2.64421499 2.49731416 4.85225294 4.75727269 6.75 7.875 C9.83373753 12.15796879 13.74977601 14.93039378 18 18 C17.01 18.33 16.02 18.66 15 19 C8.96617319 15.24853377 3.71708667 8.99380225 0 3 C0 2.01 0 1.02 0 0 Z " fill="#529F64" transform="translate(354,442)"/>
<path d="M0 0 C3.90285767 1.58667578 6.33520982 4.13350481 9.25 7.125 C10.14203125 8.03507813 11.0340625 8.94515625 11.953125 9.8828125 C12.62859375 10.58148437 13.3040625 11.28015625 14 12 C13.67 12.99 13.34 13.98 13 15 C10.82722286 12.88094537 8.66173092 10.75527122 6.5 8.625 C5.87996094 8.02171875 5.25992188 7.4184375 4.62109375 6.796875 C4.03457031 6.21679688 3.44804688 5.63671875 2.84375 5.0390625 C2.29912109 4.50490723 1.75449219 3.97075195 1.19335938 3.42041016 C0 2 0 2 0 0 Z " fill="#54A367" transform="translate(713,644)"/>
<path d="M0 0 C3.73584906 1.47169811 3.73584906 1.47169811 5 4 C3.68 3.67 2.36 3.34 1 3 C0.67 3.66 0.34 4.32 0 5 C-0.66 5 -1.32 5 -2 5 C-3.57822166 6.11672002 -5.11530628 7.29224502 -6.625 8.5 C-7.44226563 9.1496875 -8.25953125 9.799375 -9.1015625 10.46875 C-9.72804688 10.9740625 -10.35453125 11.479375 -11 12 C-11 11.01 -11 10.02 -11 9 C-5.65116279 4 -5.65116279 4 -3 4 C-2.67 3.01 -2.34 2.02 -2 1 C-1.34 0.67 -0.68 0.34 0 0 Z " fill="#58A76C" transform="translate(658,666)"/>
<path d="M0 0 C0.66 0.33 1.32 0.66 2 1 C0.43910974 2.41844009 -1.1237889 3.83467025 -2.6875 5.25 C-3.55761719 6.03890625 -4.42773438 6.8278125 -5.32421875 7.640625 C-12.53642384 14 -12.53642384 14 -15 14 C-13.45771856 9.59935696 -9.98573023 7.40404102 -6.375 4.75 C-5.76398438 4.29109375 -5.15296875 3.8321875 -4.5234375 3.359375 C-3.0209208 2.23248748 -1.51115591 1.11527563 0 0 Z " fill="#519E63" transform="translate(330,257)"/>
<path d="M0 0 C5.14595054 0.57618751 9.55078055 1.74743278 14.4375 3.5625 C15.67371094 4.01753906 16.90992188 4.47257813 18.18359375 4.94140625 C19.11300781 5.29074219 20.04242187 5.64007813 21 6 C21 6.66 21 7.32 21 8 C14.2295162 6.43758066 7.43774735 4.63690131 1 2 C0.67 1.34 0.34 0.68 0 0 Z " fill="#539F66" transform="translate(573,218)"/>
<path d="M0 0 C1.09731445 0.00676758 1.09731445 0.00676758 2.21679688 0.01367188 C3.99873419 0.02531852 5.78062863 0.04324809 7.5625 0.0625 C7.5625 0.3925 7.5625 0.7225 7.5625 1.0625 C-0.82659618 2.3152717 -8.93487031 3.42261137 -17.4375 3.0625 C-13.210241 -1.164759 -5.6992118 -0.06778568 0 0 Z " fill="#519D63" transform="translate(464.4375,205.9375)"/>
<path d="M0 0 C0.66 0.33 1.32 0.66 2 1 C-3.61 6.61 -9.22 12.22 -15 18 C-15 14.06830895 -13.60580385 12.83572772 -11 10 C-10.34 10 -9.68 10 -9 10 C-8.67 9.01 -8.34 8.02 -8 7 C-6.15234375 5.17578125 -6.15234375 5.17578125 -3.9375 3.3125 C-2.83728516 2.37857422 -2.83728516 2.37857422 -1.71484375 1.42578125 C-1.14894531 0.95527344 -0.58304687 0.48476563 0 0 Z " fill="#4B965A" transform="translate(312,272)"/>
<path d="M0 0 C-4.52707138 3.32601163 -8.98876334 6.4452519 -14 9 C-14.66 8.67 -15.32 8.34 -16 8 C-13.6067214 5.38628785 -11.01602954 3.59911335 -8 1.75 C-7.13375 1.20859375 -6.2675 0.6671875 -5.375 0.109375 C-3 -1 -3 -1 0 0 Z " fill="#52A165" transform="translate(612,642)"/>
<path d="M0 0 C0 0.99 0 1.98 0 3 C-2.01822917 2.96744792 -4.03645833 2.93489583 -6.0546875 2.90234375 C-8.08185404 2.87350758 -8.08185404 2.87350758 -10 4 C-12.01927511 3.39421747 -14.02253397 2.73080266 -16 2 C-16 1.67 -16 1.34 -16 1 C-10.61509359 0.08342019 -5.45769811 -0.11138159 0 0 Z " fill="#509F63" transform="translate(427,571)"/>
<path d="M0 0 C-7.92 3.96 -7.92 3.96 -16 8 C-13.8641446 3.7282892 -13.19217044 3.18487896 -9.125 1.1875 C-8.26132812 0.74792969 -7.39765625 0.30835938 -6.5078125 -0.14453125 C-4 -1 -4 -1 0 0 Z " fill="#53A065" transform="translate(466,315)"/>
<path d="M0 0 C0.66 0 1.32 0 2 0 C0.51194289 5.80342274 -2.59097555 10.17590879 -6 15 C-7 12 -7 12 -5.8203125 9.58984375 C-5.26085937 8.71457031 -4.70140625 7.83929687 -4.125 6.9375 C-3.57070313 6.05964844 -3.01640625 5.18179688 -2.4453125 4.27734375 C-1.96835937 3.52582031 -1.49140625 2.77429688 -1 2 C-0.67 1.34 -0.34 0.68 0 0 Z " fill="#519E62" transform="translate(678,565)"/>
<path d="M0 0 C1.03274898 2.68514734 1.07566569 3.7921588 0.07421875 6.54296875 C-0.38339844 7.41566406 -0.84101562 8.28835938 -1.3125 9.1875 C-1.76238281 10.06792969 -2.21226562 10.94835937 -2.67578125 11.85546875 C-4 14 -4 14 -6 15 C-5.39644592 11.14974121 -4.23227397 8.13898841 -2.4375 4.6875 C-1.98246094 3.80449219 -1.52742187 2.92148437 -1.05859375 2.01171875 C-0.53458984 1.01591797 -0.53458984 1.01591797 0 0 Z " fill="#51A064" transform="translate(687,548)"/>
<path d="M0 0 C1.1446875 1.175625 1.1446875 1.175625 2.3125 2.375 C5.81376772 5.79484289 8.23057915 7.2265804 13 8 C12.34 8.66 11.68 9.32 11 10 C6.62812166 9.76368225 4.05635183 8.05635183 1 5 C0.1875 2.25 0.1875 2.25 0 0 Z " fill="#51A065" transform="translate(395,593)"/>
<path d="M0 0 C0.33 0 0.66 0 1 0 C1 1.98 1 3.96 1 6 C0.34 6 -0.32 6 -1 6 C-1.12375 7.299375 -1.2475 8.59875 -1.375 9.9375 C-1.5859375 12.15234375 -1.5859375 12.15234375 -2 14 C-2.99 14.495 -2.99 14.495 -4 15 C-3.50341703 9.33895411 -2.45489316 5.12325529 0 0 Z " fill="#52A064" transform="translate(696,523)"/>
<path d="M0 0 C3.78239671 0.65690619 7.21841526 1.720131 10.8125 3.0625 C11.78832031 3.42472656 12.76414062 3.78695313 13.76953125 4.16015625 C14.50558594 4.43730469 15.24164062 4.71445312 16 5 C16 5.33 16 5.66 16 6 C10.34979382 5.39891424 5.33835539 3.92471317 0 2 C0 1.34 0 0.68 0 0 Z " fill="#52A064" transform="translate(558,264)"/>
<path d="M0 0 C1.75070517 0.11470137 3.50057536 0.24219028 5.25 0.375 C6.22453125 0.44460938 7.1990625 0.51421875 8.203125 0.5859375 C10.89633189 0.98465249 12.66963279 1.63507063 15 3 C4.44191344 3.18451025 4.44191344 3.18451025 0 2 C0 1.34 0 0.68 0 0 Z " fill="#4F9B60" transform="translate(438,721)"/>
<path d="M0 0 C0.99 0.33 1.98 0.66 3 1 C0.36 3.97 -2.28 6.94 -5 10 C-5.33 9.01 -5.66 8.02 -6 7 C-4.78515625 5.17578125 -4.78515625 5.17578125 -3.0625 3.3125 C-2.49660156 2.68988281 -1.93070313 2.06726563 -1.34765625 1.42578125 C-0.90292969 0.95527344 -0.45820312 0.48476563 0 0 Z " fill="#509F61" transform="translate(654,600)"/>
<path d="M0 0 C0 3.99476331 -1.28869085 5.1421336 -4 8 C-6.75 9.3125 -6.75 9.3125 -9 10 C-8.06409496 8.8944811 -7.12620142 7.79064547 -6.1875 6.6875 C-5.66542969 6.07261719 -5.14335938 5.45773437 -4.60546875 4.82421875 C-3.12827531 3.14575321 -1.59960869 1.56117966 0 0 Z " fill="#509E61" transform="translate(622,448)"/>
<path d="M0 0 C0.99 0.33 1.98 0.66 3 1 C-0.63 3.31 -4.26 5.62 -8 8 C-5.79795605 3.59591211 -4.23481604 2.33347006 0 0 Z " fill="#4F9B60" transform="translate(341,249)"/>
<path d="M0 0 C0.99 0.33 1.98 0.66 3 1 C-1.455 4.465 -1.455 4.465 -6 8 C-6 7.01 -6 6.02 -6 5 C-3.1875 2.25 -3.1875 2.25 0 0 Z " fill="#509E62" transform="translate(631,624)"/>
<path d="M0 0 C4.51478398 0.53115106 7.34666857 2.36620292 11 5 C8 6 8 6 5.95703125 5.0390625 C5.24933594 4.57242187 4.54164063 4.10578125 3.8125 3.625 C3.09707031 3.16351563 2.38164063 2.70203125 1.64453125 2.2265625 C1.10183594 1.82179688 0.55914063 1.41703125 0 1 C0 0.67 0 0.34 0 0 Z " fill="#519F64" transform="translate(517,315)"/>
<path d="M0 0 C-1.17744585 3.53233755 -1.95605641 3.86308075 -5.0625 5.6875 C-5.79597656 6.12449219 -6.52945313 6.56148437 -7.28515625 7.01171875 C-7.85105469 7.33785156 -8.41695312 7.66398438 -9 8 C-7.25975373 4.16501285 -4.63701127 0 0 0 Z " fill="#519D61" transform="translate(655,670)"/>
<path d="M0 0 C0.66 0.33 1.32 0.66 2 1 C-0.97 4.96 -0.97 4.96 -4 9 C-4.33 8.34 -4.66 7.68 -5 7 C-3.35 4.69 -1.7 2.38 0 0 Z " fill="#509D61" transform="translate(669,581)"/>
<path d="M0 0 C3.83736322 0.95934081 4.59660228 1.23609263 7 4 C6.67 4.99 6.34 5.98 6 7 C4.02 4.69 2.04 2.38 0 0 Z " fill="#56A468" transform="translate(704,636)"/>
<path d="M0 0 C0.66 0.33 1.32 0.66 2 1 C1.21654285 2.17219543 0.42297164 3.33763668 -0.375 4.5 C-0.81585937 5.1496875 -1.25671875 5.799375 -1.7109375 6.46875 C-2.13632812 6.9740625 -2.56171875 7.479375 -3 8 C-3.66 8 -4.32 8 -5 8 C-3.8141763 4.62496331 -2.72426311 2.35277269 0 0 Z " fill="#4F9C61" transform="translate(662,591)"/>
<path d="M0 0 C0.33 0.66 0.66 1.32 1 2 C-0.98 4.31 -2.96 6.62 -5 9 C-5 4.61031544 -2.87194899 3.23094261 0 0 Z " fill="#4F9B60" transform="translate(326,329)"/>
<path d="M0 0 C3 1 3 1 3 1 Z " fill="#65B17B" transform="translate(523,727)"/>
<path d="M0 0 C3 1 3 1 3 1 Z " fill="#65AF7A" transform="translate(369,701)"/>
<path d="M0 0 C0.33 0.66 0.66 1.32 1 2 C0.34 1.67 -0.32 1.34 -1 1 C-0.67 0.67 -0.34 0.34 0 0 Z " fill="#65B07B" transform="translate(226,484)"/>
<path d="M0 0 C2 1 2 1 2 1 Z " fill="#66B07A" transform="translate(451,726)"/>
<path d="M0 0 C2 1 2 1 2 1 Z " fill="#68B27D" transform="translate(564,719)"/>
<path d="M0 0 C2 1 2 1 2 1 Z " fill="#65AF7A" transform="translate(410,717)"/>
<path d="M0 0 C2 1 2 1 2 1 Z " fill="#64AE79" transform="translate(353,691)"/>
<path d="M0 0 C2 1 2 1 2 1 Z " fill="#6BB984" transform="translate(520,672)"/>
<path d="" fill="#64B07A" transform="translate(0,0)"/>
<path d="" fill="#66AF7A" transform="translate(0,0)"/>
<path d="" fill="#68B880" transform="translate(0,0)"/>
<path d="" fill="#65AE79" transform="translate(0,0)"/>
<path d="" fill="#6BB780" transform="translate(0,0)"/>
<path d="M0 0 C2 1 2 1 2 1 Z " fill="#65AF77" transform="translate(724,338)"/>
<path d="" fill="#6AB883" transform="translate(0,0)"/>
<path d="M0 0 C2 1 2 1 2 1 Z " fill="#68B780" transform="translate(442,261)"/>
<path d="M0 0 C2 1 2 1 2 1 Z " fill="#63AF78" transform="translate(596,224)"/>
<path d="M0 0 C2 1 2 1 2 1 Z " fill="#63AE78" transform="translate(574,216)"/>
<path d="" fill="#394334" transform="translate(0,0)"/>
<path d="" fill="#66A877" transform="translate(0,0)"/>
<path d="" fill="#65AB77" transform="translate(0,0)"/>
<path d="" fill="#65AF77" transform="translate(0,0)"/>
<path d="" fill="#65AE7A" transform="translate(0,0)"/>
<path d="" fill="#66B17D" transform="translate(0,0)"/>
<path d="" fill="#68B37F" transform="translate(0,0)"/>
<path d="" fill="#68B37D" transform="translate(0,0)"/>
<path d="" fill="#67B27B" transform="translate(0,0)"/>
<path d="" fill="#68B37D" transform="translate(0,0)"/>
<path d="" fill="#64AB77" transform="translate(0,0)"/>
<path d="" fill="#63B17B" transform="translate(0,0)"/>
<path d="" fill="#66B079" transform="translate(0,0)"/>
<path d="" fill="#65B17A" transform="translate(0,0)"/>
<path d="" fill="#64B079" transform="translate(0,0)"/>
<path d="" fill="#66B179" transform="translate(0,0)"/>
<path d="" fill="#68B57D" transform="translate(0,0)"/>
<path d="" fill="#68B37B" transform="translate(0,0)"/>
<path d="" fill="#65AF78" transform="translate(0,0)"/>
<path d="" fill="#6AB47E" transform="translate(0,0)"/>
<path d="" fill="#68B87D" transform="translate(0,0)"/>
<path d="" fill="#69B882" transform="translate(0,0)"/>
<path d="" fill="#64AE77" transform="translate(0,0)"/>
<path d="" fill="#68BA82" transform="translate(0,0)"/>
<path d="" fill="#63AD7A" transform="translate(0,0)"/>
<path d="" fill="#6BBA80" transform="translate(0,0)"/>
<path d="" fill="#6AB783" transform="translate(0,0)"/>
<path d="" fill="#67B07D" transform="translate(0,0)"/>
<path d="" fill="#6CBB82" transform="translate(0,0)"/>
<path d="" fill="#69BB7F" transform="translate(0,0)"/>
<path d="" fill="#6AB780" transform="translate(0,0)"/>
<path d="" fill="#63AD78" transform="translate(0,0)"/>
<path d="" fill="#66AF7A" transform="translate(0,0)"/>
<path d="" fill="#66B07B" transform="translate(0,0)"/>
<path d="" fill="#6DBA83" transform="translate(0,0)"/>
<path d="" fill="#6FBA8D" transform="translate(0,0)"/>
<path d="" fill="#65B07B" transform="translate(0,0)"/>
<path d="" fill="#63B07A" transform="translate(0,0)"/>
<path d="" fill="#6CB77F" transform="translate(0,0)"/>
<path d="" fill="#64AE7A" transform="translate(0,0)"/>
<path d="" fill="#64AD78" transform="translate(0,0)"/>
<path d="" fill="#6AB981" transform="translate(0,0)"/>
<path d="" fill="#67AE7B" transform="translate(0,0)"/>
<path d="" fill="#67B47C" transform="translate(0,0)"/>
<path d="" fill="#69B07D" transform="translate(0,0)"/>
<path d="" fill="#66B47E" transform="translate(0,0)"/>
<path d="" fill="#63AD7A" transform="translate(0,0)"/>
<path d="" fill="#69B980" transform="translate(0,0)"/>
<path d="" fill="#6ABA83" transform="translate(0,0)"/>
<path d="" fill="#69B580" transform="translate(0,0)"/>
<path d="" fill="#67B27D" transform="translate(0,0)"/>
<path d="" fill="#66B17C" transform="translate(0,0)"/>
<path d="" fill="#68B881" transform="translate(0,0)"/>
<path d="" fill="#64B27D" transform="translate(0,0)"/>
<path d="" fill="#65AF79" transform="translate(0,0)"/>
<path d="" fill="#65AE78" transform="translate(0,0)"/>
<path d="" fill="#67B17B" transform="translate(0,0)"/>
<path d="" fill="#6ABC86" transform="translate(0,0)"/>
<path d="" fill="#67B37C" transform="translate(0,0)"/>
<path d="" fill="#65AE79" transform="translate(0,0)"/>
<path d="" fill="#64B17A" transform="translate(0,0)"/>
<path d="" fill="#69B781" transform="translate(0,0)"/>
<path d="" fill="#69BA85" transform="translate(0,0)"/>
<path d="" fill="#69BB84" transform="translate(0,0)"/>
<path d="" fill="#6AB880" transform="translate(0,0)"/>
<path d="" fill="#6AB982" transform="translate(0,0)"/>
<path d="" fill="#66B782" transform="translate(0,0)"/>
<path d="" fill="#6AB886" transform="translate(0,0)"/>
<path d="" fill="#6BBA83" transform="translate(0,0)"/>
<path d="" fill="#6BB982" transform="translate(0,0)"/>
<path d="" fill="#6AB981" transform="translate(0,0)"/>
<path d="" fill="#67B77F" transform="translate(0,0)"/>
<path d="" fill="#65B07B" transform="translate(0,0)"/>
<path d="" fill="#6AB983" transform="translate(0,0)"/>
<path d="" fill="#6ABA82" transform="translate(0,0)"/>
<path d="" fill="#69B882" transform="translate(0,0)"/>
<path d="" fill="#6BBA83" transform="translate(0,0)"/>
<path d="" fill="#68B881" transform="translate(0,0)"/>
<path d="" fill="#68B880" transform="translate(0,0)"/>
<path d="" fill="#66B27D" transform="translate(0,0)"/>
<path d="" fill="#6AB681" transform="translate(0,0)"/>
<path d="" fill="#68B37D" transform="translate(0,0)"/>
<path d="" fill="#64B07C" transform="translate(0,0)"/>
<path d="" fill="#6AB881" transform="translate(0,0)"/>
<path d="" fill="#67B17D" transform="translate(0,0)"/>
<path d="" fill="#67B680" transform="translate(0,0)"/>
<path d="" fill="#69B680" transform="translate(0,0)"/>
<path d="" fill="#68B781" transform="translate(0,0)"/>
<path d="" fill="#6DBE89" transform="translate(0,0)"/>
<path d="" fill="#69B27F" transform="translate(0,0)"/>
<path d="" fill="#69B780" transform="translate(0,0)"/>
<path d="" fill="#6AB881" transform="translate(0,0)"/>
<path d="" fill="#68B67F" transform="translate(0,0)"/>
<path d="" fill="#69B980" transform="translate(0,0)"/>
<path d="" fill="#66B881" transform="translate(0,0)"/>
<path d="" fill="#68B37E" transform="translate(0,0)"/>
<path d="" fill="#67B881" transform="translate(0,0)"/>
<path d="" fill="#67B17D" transform="translate(0,0)"/>
<path d="" fill="#6BB982" transform="translate(0,0)"/>
<path d="" fill="#68B87E" transform="translate(0,0)"/>
<path d="" fill="#64B07C" transform="translate(0,0)"/>
<path d="" fill="#6BB884" transform="translate(0,0)"/>
<path d="" fill="#69B77F" transform="translate(0,0)"/>
<path d="" fill="#6AB581" transform="translate(0,0)"/>
<path d="" fill="#69B680" transform="translate(0,0)"/>
<path d="" fill="#67B17C" transform="translate(0,0)"/>
<path d="" fill="#65B17A" transform="translate(0,0)"/>
<path d="" fill="#63B17A" transform="translate(0,0)"/>
<path d="" fill="#6AB780" transform="translate(0,0)"/>
<path d="" fill="#68B582" transform="translate(0,0)"/>
<path d="" fill="#62B078" transform="translate(0,0)"/>
<path d="" fill="#6BB883" transform="translate(0,0)"/>
<path d="" fill="#68B77F" transform="translate(0,0)"/>
<path d="" fill="#69B580" transform="translate(0,0)"/>
<path d="" fill="#6CB680" transform="translate(0,0)"/>
<path d="" fill="#6BB883" transform="translate(0,0)"/>
<path d="" fill="#6AB37E" transform="translate(0,0)"/>
<path d="" fill="#67B382" transform="translate(0,0)"/>
<path d="" fill="#65B37C" transform="translate(0,0)"/>
<path d="" fill="#69B780" transform="translate(0,0)"/>
<path d="" fill="#68B580" transform="translate(0,0)"/>
<path d="" fill="#69B881" transform="translate(0,0)"/>
<path d="" fill="#6BBB82" transform="translate(0,0)"/>
<path d="" fill="#6AB884" transform="translate(0,0)"/>
<path d="" fill="#66B07A" transform="translate(0,0)"/>
<path d="" fill="#6BBA83" transform="translate(0,0)"/>
<path d="" fill="#67B57F" transform="translate(0,0)"/>
<path d="" fill="#6BB784" transform="translate(0,0)"/>
<path d="" fill="#69BB83" transform="translate(0,0)"/>
<path d="" fill="#6AB881" transform="translate(0,0)"/>
<path d="" fill="#65AE7D" transform="translate(0,0)"/>
<path d="" fill="#66B07A" transform="translate(0,0)"/>
<path d="" fill="#65B27C" transform="translate(0,0)"/>
<path d="" fill="#66AF7B" transform="translate(0,0)"/>
<path d="" fill="#63AF79" transform="translate(0,0)"/>
<path d="" fill="#66B17B" transform="translate(0,0)"/>
<path d="" fill="#68B47D" transform="translate(0,0)"/>
<path d="" fill="#67B57C" transform="translate(0,0)"/>
<path d="" fill="#65B17B" transform="translate(0,0)"/>
<path d="" fill="#67B47D" transform="translate(0,0)"/>
</svg>
